<svg width="63" height="97" viewBox="0 0 63 97" fill="none" xmlns="http://www.w3.org/2000/svg">
<path fill-rule="evenodd" clip-rule="evenodd" d="M25.4531 19.2665C27.0942 18.3035 28.4247 16.9838 29.6702 15.5674C28.2698 16.8068 26.893 18.0727 25.4531 19.2665ZM34.9391 11.0251C34.8846 10.9669 34.83 10.9088 34.7755 10.8506C33.3375 12.1644 31.7799 13.3442 30.5312 14.8699L34.9391 11.0251ZM1.8815 80.6387C1.03875 81.4753 0.654995 84.0695 1.20797 84.6038C1.36573 83.29 1.36992 81.9267 1.8815 80.6387ZM8.26018 28.375C6.28294 29.7151 4.51828 31.2523 3.66406 33.5918C5.02371 31.7001 6.51733 29.9302 8.26018 28.375ZM37.6367 8.64144C40.9426 6.05193 44.4092 3.75331 48.2882 2.12207C45.747 2.45856 38.6985 7.11649 37.6367 8.64144ZM36.4747 70.4033C35.6848 71.9811 35.1953 73.6708 34.7302 75.3566C34.2544 77.0807 33.6122 78.745 33.055 80.4375C32.5283 82.0374 31.7672 83.5604 31.1094 85.1172C33.9249 80.5765 34.9749 75.4123 36.4747 70.4033ZM8.1907 45.0778C8.20384 44.9808 8.18231 44.8409 8.23769 44.7959C8.33782 44.7142 8.38957 44.8387 8.45614 44.9122C8.64466 45.1192 8.55655 45.4316 8.815 45.6389C9.2919 46.0207 9.61999 46.5012 9.85746 47.1082C10.06 47.6256 10.6127 48.0019 10.9894 48.4578C11.0736 48.5593 11.1791 48.731 11.0705 48.8754C10.8689 49.143 11.0305 49.2309 11.2526 49.2938C11.527 49.371 11.6722 49.5785 11.7653 49.8177C12.1015 50.6792 12.5491 51.4973 12.6492 52.4464C12.7138 53.0586 12.8125 53.7903 13.0394 54.237C13.671 55.4817 13.6939 56.7941 13.634 58.0407C13.5798 59.1696 13.3627 60.3259 13.4148 61.4568C13.4595 62.4338 12.9681 63.2301 12.8313 64.14C12.6657 65.2415 11.9021 66.2028 11.7516 67.3477C11.6588 68.0508 10.9164 68.5851 10.9229 69.142C10.9374 70.4294 9.79704 71.1223 9.59566 72.2833C9.5316 72.6525 9.38028 73.2055 9.05918 73.5568C8.39936 74.2779 8.20636 75.2759 7.52304 75.9942C6.66267 76.8987 6.21598 78.1099 5.29855 79.0077C4.74753 79.5473 4.31678 80.2432 3.83457 80.8641C3.39767 81.4258 3.43683 82.2968 3.2925 83.0394C3.08328 84.1143 3.70003 84.9515 3.97834 85.8957C4.64348 88.1518 6.0297 90.0169 7.65254 91.5217C10.8219 94.4609 14.6178 95.4267 18.8382 93.8883C19.2667 93.7322 19.6947 93.575 20.1268 93.4299C22.661 92.579 24.8502 91.1727 26.8837 89.4466C29.5448 87.1877 30.8049 84.0377 32.2792 81.056C32.795 80.0133 32.9955 78.7347 33.3849 77.5768C33.6514 76.7841 33.9384 75.9925 34.1219 75.1788C34.3068 74.3585 34.5588 73.5613 34.8044 72.7616C35.0494 71.9633 35.3945 71.1922 35.5887 70.3833C35.7615 69.6639 36.1153 69.0211 36.2644 68.2754C36.4636 67.2786 36.7889 66.2856 37.0596 65.2907C38.033 61.7127 38.7611 58.0877 39.1996 54.4035C39.4427 52.3616 39.6198 50.3005 40.0427 48.2933C41.4088 41.8061 44.396 36.0744 48.5105 30.9231C50.3495 28.6208 52.3005 26.4072 54.2257 24.1749C56.9825 20.9787 58.4783 17.1744 59.6053 13.1836C60.3062 10.7023 60.1848 8.251 59.2741 5.85644C58.7547 4.49176 57.981 3.35224 56.3486 3.08289C54.8287 2.83199 53.3457 3.19197 51.9086 3.45769C51.0541 3.616 50.1233 4.02241 49.2657 4.43722C47.2084 5.43269 45.1218 6.37278 43.3331 7.82165C42.9071 8.16625 42.3768 8.2124 41.9511 8.55671C41.4062 8.99725 41.0256 9.59218 40.4312 9.98797C40.0899 10.2148 39.681 10.2369 39.3664 10.5278C37.3709 12.3711 35.1154 13.9215 33.3144 15.9879C32.6892 16.7056 31.917 17.2933 31.2359 17.9646C28.6785 20.4839 25.7025 22.3688 22.3499 23.6004C18.2399 25.1102 14.4043 27.1342 10.8163 29.607C9.44434 30.5524 7.97476 31.4441 6.99104 32.8815C6.42072 33.7154 5.68734 34.5654 5.59839 35.5206C5.46637 36.9334 5.3226 38.4088 5.80369 39.8163C5.91977 40.1558 5.71279 40.6291 5.78495 40.7452C6.06326 41.1908 6.23108 41.6948 6.53261 42.1222C7.18376 43.046 8.08161 43.8356 8.1907 45.0778ZM7.40777 72.3238C7.62426 72.2421 7.67797 72.0256 7.75265 71.8524C8.46366 70.2061 9.23229 68.5799 9.70807 66.8435C9.98637 65.8273 10.4747 64.859 10.4588 63.7695C9.96735 65.6964 9.1109 67.4932 8.50254 69.3768C8.17976 70.3764 7.57587 71.2751 7.42399 72.3386C6.55495 73.4848 6.1284 74.8615 5.42578 76.0945C6.16896 74.8803 7.04248 73.7329 7.40777 72.3238ZM39.6686 67.7438C39.6384 67.5584 39.6675 67.3936 39.4826 67.3005C39.4498 67.5858 39.2202 67.8582 39.5978 68.1083C39.8174 68.2534 39.611 68.4895 39.5547 68.6651C39.0487 70.2449 38.5567 71.8314 38.0681 73.4137C37.6032 74.9202 37.048 76.406 36.6995 77.9488C36.5247 78.7233 36.149 79.4195 35.8646 80.1504C35.7337 80.486 35.6235 80.8063 35.6235 81.171C35.6232 81.9128 35.5717 81.9321 34.8859 81.5422C34.8286 81.5098 34.7418 81.5294 34.6493 81.5235C34.6493 81.606 34.6238 81.6877 34.6529 81.7366C35.0904 82.4627 34.9978 83.3334 34.484 84.033C34.145 84.4945 33.8364 84.9613 33.6899 85.5677C33.4697 86.4804 32.8441 87.1987 32.1174 87.7989C32.0514 87.8535 31.9012 87.8283 31.8942 87.9553C31.8533 88.7077 31.2478 89.0685 30.791 89.5166C30.355 89.9443 29.8174 90.2567 29.4076 90.7263C28.7064 91.5308 27.9176 92.1967 26.9565 92.7324C26.5129 92.9796 26.0623 93.4493 25.5684 93.6428C23.7433 94.3583 21.9537 95.1588 20.1052 95.8256C16.9817 96.9526 13.9066 96.622 10.8066 95.8698C8.98296 95.4273 7.33438 94.6114 5.82733 93.4909C5.25114 93.0624 4.78487 92.5408 4.31133 92.0113C2.50192 89.9893 1.23345 87.6745 0.596286 85.043C0.188196 83.3578 0.445525 81.71 1.28967 80.1929C1.51176 79.7938 1.68266 79.2704 2.43199 79.3608C2.75841 79.4002 3.08231 78.793 3.33544 78.4076C5.12527 75.6829 6.58058 72.7888 7.75254 69.7484C8.98632 66.5481 10.0629 63.3141 10.4785 59.8785C10.7803 57.3846 10.4433 54.9929 9.83551 52.5863C9.34882 50.6589 8.343 49.0475 7.19453 47.4783C6.33388 46.3027 5.56413 45.0611 4.71438 43.8771C4.41314 43.4576 4.79326 43.1899 4.88249 42.6503C4.41734 43.2827 4.34098 43.1558 4.14295 42.6355C3.94492 42.1155 3.58186 41.63 3.29516 41.1259C2.68205 40.0468 2.33158 38.8704 2.31983 37.6582C2.31535 37.1983 2.07509 36.8146 2.13718 36.3793C2.21522 35.8306 2.25354 35.2678 2.40878 34.74C2.68289 33.8066 2.8549 32.8226 3.7673 32.1888C4.01932 32.0137 3.86968 31.4705 4.15609 31.1631C5.38176 29.8471 6.53582 28.4447 8.06861 27.4688C11.7154 25.1467 15.5351 23.1689 19.5362 21.5024C22.3221 20.3419 24.9818 18.876 27.1775 16.72C30.4087 13.5476 33.8074 10.5614 37.3039 7.68803C40.6187 4.96426 44.1704 2.62677 48.2435 1.16419C49.9536 0.550238 51.7071 0.185782 53.5193 0.0607539C56.106 -0.117698 58.043 1.05958 59.5458 3.015C62.4318 6.7706 63.1093 10.9972 61.9988 15.5424C61.2523 18.5993 60.1528 21.5306 58.6021 24.2745C57.874 25.5623 57.1804 26.8657 55.9796 27.8455C55.4067 28.3129 55.0999 29.1023 54.6596 29.7366C53.154 31.9055 51.2598 33.7652 49.7612 35.9472C49.0938 36.9186 48.5296 37.9435 47.9006 38.9325C46.5278 41.091 45.5905 43.4732 44.5584 45.7962C43.6527 47.8344 43.3252 50.0617 42.9987 52.2691C42.6474 54.6474 42.2754 57.0235 41.8704 59.3932C41.6366 60.7621 41.4735 62.1754 40.9865 63.4579C40.6484 64.349 40.6358 65.2981 40.2311 66.1618C39.9986 66.6571 40.2484 67.3357 39.6686 67.7438Z" fill="black"/>
</svg>
