<svg width="47" height="77" viewBox="0 0 47 77" fill="none" xmlns="http://www.w3.org/2000/svg">
<path fill-rule="evenodd" clip-rule="evenodd" d="M23.2422 48.9887C23.3183 49.0287 23.3946 49.069 23.4707 49.109C23.7152 48.4603 24.41 47.9991 24.0903 47.1133C23.8075 47.7384 23.525 48.3636 23.2422 48.9887ZM8.67648 24.5947C7.09027 24.8926 5.4635 26.3862 5.62881 27.3982C6.39688 26.144 7.51011 25.3404 8.67648 24.5947ZM22.1166 15.0078C22.0702 14.946 22.0235 14.8845 21.9771 14.8232C19.8636 16.655 17.7499 18.4871 15.6367 20.3192C15.6815 20.3715 15.7265 20.4238 15.7715 20.4764L22.1166 15.0078ZM28.2188 9.17948C30.2055 7.71243 32.2473 6.3304 34.4419 5.18082C36.6603 4.01864 38.9043 2.91353 41.18 1.88281C36.5565 3.7711 31.9878 5.7612 28.2188 9.17948ZM13.9414 68.5038C14.4759 67.6325 15.1246 66.8641 15.5606 65.9115C16.5477 63.756 17.6934 61.6722 18.6326 59.49C20.0325 56.2387 21.5058 53.0218 23.2329 49.9277C23.3409 49.7339 23.4413 49.5389 23.1546 49.2578C19.7193 55.5531 17.2769 62.2442 13.9414 68.5038ZM28.4175 12.5382C27.5218 12.939 27.0791 13.8052 26.4363 14.4662C25.5922 14.9568 25.1253 15.8404 24.374 16.4331C23.0787 17.4548 21.749 18.4439 20.5373 19.5593C18.0298 21.8683 15.261 23.7541 12.1906 25.2382C11.0508 25.7895 9.72113 25.9072 8.74719 26.8605C8.15142 27.4434 7.42727 27.9147 7.37356 28.8276C7.29385 30.1803 7.5053 31.4874 8.15702 32.7032C9.36199 34.9509 10.9851 36.9159 12.4038 39.019C13.8781 41.2046 15.1955 43.4285 15.5312 46.1503C15.8517 48.7538 15.6587 51.3344 15.5057 53.9194C15.4747 54.443 15.1203 54.9423 15.101 55.5487C15.0744 56.3957 15.0657 57.3371 14.5279 58.0311C13.5576 59.2836 13.2359 60.8114 12.6007 62.2015C12.3926 62.6574 12.5201 63.3293 12.1199 63.6781C11.5856 64.1438 11.4419 64.7569 11.1862 65.3423C11.0866 65.5708 10.9482 65.8005 10.7728 65.9747C10.1941 66.5501 9.82965 67.3097 9.4266 67.9662C8.63531 69.2554 7.75452 70.3966 6.64297 71.408C6.32271 71.6997 5.81672 71.6642 5.62429 72.119C5.43185 72.573 5.07802 72.9089 4.70713 73.2219C4.32841 73.5416 4.13486 73.9597 3.98438 74.4489C4.26212 74.5287 4.44141 74.4154 4.62434 74.3483C5.77505 73.9267 6.75905 73.1833 7.87032 72.6778C9.81958 71.7912 11.464 70.5048 12.766 68.7852C13.7402 67.4986 14.4014 66.0427 15.0987 64.6067C16.4805 61.7607 17.8846 58.9236 19.1805 56.0382C19.9063 54.4218 20.6612 52.8219 21.4645 51.246C22.7993 48.628 23.9886 45.9428 25.1477 43.2473C26.076 41.0885 26.8444 38.8629 27.3473 36.5553C27.7859 34.5406 28.5506 32.6311 29.2982 30.7182C30.7217 27.0758 32.1697 23.4481 34.5164 20.2628C36.6248 17.4008 38.7604 14.5582 40.6657 11.5514C42.0878 9.30702 43.3221 6.98407 43.9279 4.3747C43.9928 4.09471 44.2004 3.72746 43.9623 3.5216C43.7607 3.34706 43.4317 3.57642 43.1769 3.67711C40.5052 4.7344 37.9333 5.99335 35.4448 7.43355C34.9953 7.69368 34.5959 8.2819 33.9081 7.99436C33.811 7.9538 33.6082 8.09002 33.6672 8.20666C33.8756 8.61894 33.4712 8.61391 33.3162 8.71628C32.3375 9.36324 31.3714 10.0259 30.4168 10.7086C29.67 11.2426 29.1511 12.0037 28.4175 12.5382ZM8.69872 65.2896C8.91437 65.2745 8.97619 65.0997 9.05534 64.9445C10.0567 62.9793 10.7993 60.8999 11.7086 58.895C12.1447 57.9326 11.9956 56.7779 12.7281 55.922C12.8535 55.7755 12.814 55.6311 12.6392 55.5562C12.4098 55.4577 12.2865 55.6107 12.2608 55.7981C12.1612 56.529 11.8121 57.1701 11.5696 57.8506C10.9448 59.6035 10.4094 61.3816 9.57336 63.0626C9.22596 63.7616 8.84081 64.4975 8.71634 65.3064C8.09847 66.1251 7.65738 67.0367 7.3125 67.9983C7.7452 67.0806 8.57509 66.3665 8.69872 65.2896ZM35.8363 22.6853C36.1076 23.1446 36.0156 23.433 35.8332 23.8777C35.3887 24.9621 34.4811 25.8141 34.3096 27.0238C34.2487 27.4557 33.9133 27.7818 33.708 28.1452C33.1852 29.0699 33.0848 30.1459 32.6146 31.0468C32.1685 31.9016 31.9772 32.8378 31.5224 33.6735C31.2807 34.1172 31.3657 34.6696 31.0511 35.0998C30.8388 35.3895 30.314 37.1934 30.2531 37.5405C30.1001 38.4148 29.9222 39.285 29.7457 40.1551C29.7155 40.3045 29.6483 40.4581 29.445 40.4259C29.2352 40.3929 29.1337 40.4883 29.2143 40.6746C29.5158 41.3727 29.1558 41.9981 28.8876 42.5463C28.1075 44.1395 27.43 45.7772 26.745 47.4082C26.6094 47.7315 25.9792 47.6437 26.2038 48.2879C26.3171 48.6132 25.9509 49.1768 25.6975 49.5974C25.4508 50.008 25.285 50.4662 25.0615 50.8919C23.4154 54.0299 21.9028 57.2303 20.4695 60.4718C19.6746 62.2698 18.7259 63.9989 17.8884 65.7789C17.677 66.2287 17.5385 66.7336 17.3964 67.2147C17.2658 67.6566 17.0742 68.2904 16.5344 68.5682C16.4342 68.6196 16.3719 68.6652 16.3391 68.7679C15.679 70.8466 13.9057 71.9338 12.3243 73.1514C11.192 74.0232 9.8111 74.5382 8.52642 75.1407C7.7315 75.5132 7.00035 76.1062 6.07424 76.2371C5.1459 76.3686 4.22372 76.5361 3.28251 76.5551C2.36955 76.5736 1.5254 76.3599 0.769357 75.8352C0.373295 75.5605 0.313158 75.2114 0.486016 74.7703C0.914244 73.6764 1.56008 72.7607 2.55471 72.1103C2.93567 71.8608 3.34292 71.6449 3.59662 71.2377C3.77759 70.947 4.08414 71.3129 4.42035 70.9823C5.60993 69.8123 6.35087 68.3894 7.11391 66.9593C8.69424 63.9969 9.87068 60.8648 11.0035 57.7153C11.4935 56.3523 11.7486 54.9314 11.9715 53.5027C12.1125 52.6006 12.2073 51.698 12.2678 50.7884C12.2954 50.3666 12.4652 50.0201 12.983 50.2768C13.2918 50.4301 13.3869 50.2055 13.5317 50.0466C13.6347 49.9336 13.6137 49.8044 13.5147 49.7093C13.334 49.5365 13.1771 49.7166 13.0358 49.7854C12.4563 50.0673 12.2669 49.8992 12.2963 49.2654C12.378 47.5189 12.4222 45.7719 11.9685 44.0551C11.7427 43.1995 11.4258 42.3785 11.0127 41.6032C9.80523 39.3356 8.2456 37.2918 6.86637 35.1328C5.85747 33.5524 4.81977 31.9724 4.60775 30.0435C4.55824 29.5946 4.2019 29.0475 4.82284 28.683C4.85725 28.6632 4.88746 28.5994 4.88466 28.5586C4.76439 26.7942 4.81893 26.75 6.01802 25.5134C6.79616 24.7109 7.7452 24.1527 8.71214 23.7082C12.27 22.0722 15.2682 19.6919 18.2031 17.1446C21.7758 14.0436 25.0307 10.5836 28.7424 7.65817C32.8087 4.45387 37.46 2.25818 42.397 0.741339C45.003 -0.059177 46.9338 1.88561 46.3658 4.59008C45.7985 7.29035 44.7745 9.81777 43.4143 12.2224C41.8527 14.9825 40.0634 17.5975 38.3321 20.2469C37.8571 20.9738 37.4544 21.7623 36.8751 22.433C36.5747 22.7807 36.3518 23.0861 35.8363 22.6853Z" fill="black"/>
</svg>
