<svg width="34" height="45" viewBox="0 0 34 45" fill="none" xmlns="http://www.w3.org/2000/svg">
<path fill-rule="evenodd" clip-rule="evenodd" d="M12.4414 16.1018C12.5255 16.1865 12.6099 16.2712 12.694 16.3559C13.3791 15.6571 14.0639 14.9588 14.7484 14.2601C14.6897 14.2007 14.6306 14.1414 14.5716 14.082C13.8614 14.7554 13.1512 15.4288 12.4414 16.1018ZM19.2031 9.51008C19.2582 9.598 19.3133 9.68629 19.368 9.77386C20.4412 8.92787 21.5141 8.08188 22.5873 7.23553C22.5236 7.15303 22.4602 7.06981 22.3971 6.9873C21.3322 7.82823 20.268 8.66915 19.2031 9.51008ZM25.3041 22.4199C25.0545 22.8255 24.3436 22.4796 24.2331 23.1917C24.1363 23.8156 23.8385 24.4086 23.6211 25.0397C24.7827 24.583 24.919 23.4248 25.3041 22.4199ZM24.9695 28.3768C24.7391 27.9317 24.646 27.7508 24.5844 27.6317C23.8829 27.7338 24.8123 29.184 23.7155 28.8522C23.2658 29.3954 22.9133 29.9247 22.4604 30.3466C21.4705 31.2686 20.4563 32.17 19.395 33.008C18.979 33.3366 18.4073 33.465 17.9134 33.6999C17.738 33.7831 17.504 33.8743 17.4326 34.0255C16.4594 36.1047 14.6778 37.3541 12.8722 38.6191C10.9982 39.9319 9.2967 41.5117 7.34842 42.692C5.7045 43.6878 3.96457 44.8041 1.78765 43.6267C0.688687 43.0325 0.128878 41.4625 0.96515 40.5141C1.24234 40.2 1.47097 39.8179 1.63004 39.4296C3.08626 35.8771 4.55264 32.3285 5.95524 28.7549C7.17341 25.651 8.25028 22.4903 9.50903 19.4038C10.3228 17.4093 11.745 15.8013 13.3444 14.3673C14.3241 13.4884 15.3238 12.6319 16.4612 11.9194C16.2452 12.2603 16.0289 12.6011 15.8133 12.9423C15.8633 12.9966 15.914 13.0513 15.9644 13.1059C16.6181 12.498 17.2717 11.8897 17.9257 11.2818C17.8819 11.2073 17.8384 11.1331 17.7942 11.0586C17.5036 11.1523 17.213 11.246 16.9221 11.3401C16.8721 11.2884 16.8224 11.237 16.7728 11.1852C17.0779 10.8473 17.3388 10.4507 17.6949 10.1797C21.0842 7.6019 24.4884 5.04403 27.8911 2.48399C28.3404 2.14602 28.836 1.8627 29.2527 1.49036C30.0357 0.791282 31.6007 0.224273 32.1311 0.6299C33.0105 1.30257 33.67 2.17497 33.4344 3.38172C33.1674 4.75455 32.9754 6.16827 32.4873 7.46548C31.7434 9.44115 31.4927 11.5474 30.7075 13.4996C30.5814 13.8126 30.3245 14.0731 30.1977 14.3861C30.0727 14.6929 30.0158 15.0331 29.9651 15.3642C29.86 16.0542 29.8303 16.7602 29.6748 17.4375C29.4785 18.2922 29.2266 19.1393 28.9288 19.9639C28.307 21.683 27.6494 23.3895 26.9758 25.0891C26.9048 25.2689 26.6225 25.3586 26.4558 25.5095C26.2961 25.6535 26.0037 25.8761 26.0363 25.973C26.4258 27.1172 24.9779 27.2341 24.9695 28.3768Z" fill="black"/>
</svg>
