<svg width="23" height="37" viewBox="0 0 23 37" fill="none" xmlns="http://www.w3.org/2000/svg">
<path fill-rule="evenodd" clip-rule="evenodd" d="M17.9914 18.5546C17.8626 18.4839 17.7332 18.4125 17.6041 18.3418C17.2856 18.8811 16.9672 19.4205 16.6484 19.9594C16.7534 20.021 16.858 20.0826 16.9625 20.1442C17.3058 19.6143 17.6484 19.0845 17.9914 18.5546ZM15.1758 22.9127C15.2338 22.9557 15.2923 22.999 15.3507 23.0424C16.1404 22.198 16.9309 21.3537 17.7207 20.5086C17.6655 20.4565 17.6099 20.404 17.5544 20.3516C16.7614 21.205 15.9684 22.0588 15.1758 22.9127ZM7.32422 14.9023C7.42772 15.0054 7.53085 15.1082 7.63399 15.2109C8.30365 14.4023 8.97332 13.5944 9.64299 12.7861C9.68338 12.8291 9.72376 12.8718 9.76415 12.9148C8.95096 13.5776 8.13777 14.2398 7.32422 14.9023ZM4.92298 18.3728C5.71201 16.9822 6.31533 15.4309 7.32722 14.2319C9.69828 11.423 12.2208 8.73878 14.7689 6.09023C16.4216 4.37276 18.2189 2.79704 19.9769 1.18597C20.1677 1.01032 20.5705 0.891158 20.7992 0.970236C21.5615 1.23334 22.507 1.48515 22.4987 2.49749C22.484 4.29113 22.3293 6.0844 22.203 7.87549C22.0804 9.61155 21.9254 11.3454 21.7739 13.0793C21.5283 15.8966 21.1024 18.7 19.6939 21.1758C19.0199 22.3609 17.9294 23.3124 16.9896 24.3334C15.9972 25.4125 14.99 26.4809 13.9323 27.4933C13.1014 28.2884 12.1811 28.987 11.307 29.7362C10.6139 30.3302 9.87678 30.8852 9.25364 31.5477C7.55729 33.3501 5.69723 34.9236 3.50143 36.0679C3.03515 36.3106 0.938526 36.0504 0.635608 35.6762C0.0849457 34.9965 0.321871 34.2812 0.53716 33.5203C1.121 31.4566 1.61793 29.3678 2.16318 27.2925C2.85196 24.6742 3.53894 22.0551 4.26666 19.4485C4.37629 19.0557 4.70481 18.7255 4.93669 18.3625C5.05894 18.5236 5.1765 18.6883 5.33517 18.9114C5.99005 17.7984 6.61608 16.7347 7.24211 15.6706C7.15016 15.6138 7.05784 15.5569 6.96552 15.5001C6.73941 15.8386 6.52268 16.1834 6.28576 16.5135C5.83787 17.1378 5.37772 17.7536 4.92298 18.3728Z" fill="black"/>
</svg>
