<svg width="19" height="33" viewBox="0 0 19 33" fill="none" xmlns="http://www.w3.org/2000/svg">
<path fill-rule="evenodd" clip-rule="evenodd" d="M11.817 14.3937C11.7336 14.3603 11.6501 14.327 11.5666 14.2939C11.1525 15.3245 10.7383 16.3554 10.3242 17.386C10.4033 17.4157 10.482 17.4451 10.5607 17.4748C10.9796 16.4479 11.3981 15.421 11.817 14.3937ZM8.39501 10.0862C8.31299 10.0238 8.23024 9.96181 8.14823 9.89941C7.29791 10.9111 6.44797 11.9224 5.59766 12.9345L5.81538 13.1064C6.67563 12.0998 7.5355 11.0928 8.39501 10.0862ZM0.515625 30.7759C0.947402 27.6197 1.331 24.8487 1.7043 22.0766C1.85325 20.9688 2.0228 19.861 2.10665 18.7477C2.32659 15.8167 4.1015 13.7404 5.95255 11.6691C7.28981 10.1728 8.48142 8.55025 9.8025 7.03869C11.3998 5.21082 13.0265 3.404 14.7242 1.66754C15.2483 1.1314 15.9537 0.68813 16.8908 1.07772C17.9871 1.53405 18.8312 2.14818 18.8492 3.40508C18.8816 5.69509 18.9353 7.99017 18.8154 10.2744C18.7551 11.4217 18.2586 12.5401 18.0949 13.6903C17.9327 14.8326 17.9849 16.0036 17.8588 17.1531C17.7683 17.9791 17.6749 18.8496 17.3391 19.5933C16.9272 20.5048 16.3527 21.383 15.6848 22.1343C14.5859 23.3705 13.3579 24.4961 12.1798 25.6631C10.5234 27.3048 8.936 29.0145 6.88157 30.2188C6.21074 30.612 5.69805 31.2584 5.06987 31.7336C3.93048 32.5951 2.62044 32.3466 1.42773 31.99C0.96763 31.8522 0.71055 31.0538 0.515625 30.7759Z" fill="black"/>
</svg>
