<svg width="28" height="38" viewBox="0 0 28 38" fill="none" xmlns="http://www.w3.org/2000/svg">
<path fill-rule="evenodd" clip-rule="evenodd" d="M27.1821 5.91056C26.9341 7.38491 26.5832 9.20256 26.3319 11.0341C26.0265 13.2597 25.7341 15.4918 25.5748 17.7309C25.4839 19.0062 25.0124 20.0453 24.2051 20.9371C22.6895 22.6112 21.0133 24.1466 19.5973 25.8996C18.0171 27.8567 15.9647 29.1945 14.0635 30.7379C11.993 32.4193 9.9323 34.1135 7.83834 35.765C7.09174 36.3537 6.25849 36.8307 5.46929 37.3657C4.08944 38.3006 2.58974 37.9814 1.13192 37.709C0.826849 37.652 0.438746 37.0775 0.405531 36.7123C0.344879 36.0352 0.435857 35.3158 0.606984 34.6511C1.76191 30.1616 2.98398 25.6892 4.1223 21.1957C4.70572 18.8923 5.71334 16.8497 7.32569 15.1219C10.2262 12.0132 13.0794 8.8567 16.0618 5.83021C18.0319 3.83142 20.3923 2.30813 22.8217 0.915588C24.7235 -0.174563 26.7684 0.84985 27.0262 3.05645C27.1222 3.87525 27.12 4.70573 27.1821 5.91056Z" fill="black"/>
</svg>
