<svg width="22" height="48" viewBox="0 0 22 48" fill="none" xmlns="http://www.w3.org/2000/svg">
<path fill-rule="evenodd" clip-rule="evenodd" d="M15.6883 28.4201C15.5573 28.3492 15.4258 28.2779 15.2952 28.207C14.6851 29.4373 14.0749 30.6679 13.4648 31.8989C13.5592 31.9479 13.6535 31.9976 13.7479 32.0473C14.3947 30.8382 15.0415 29.6291 15.6883 28.4201ZM0.808018 47.4759C0.153496 45.6742 0.522789 42.8421 1.53449 42.1157C1.24045 42.1003 0.982018 42.0868 0.700827 42.0722C0.670359 41.9743 0.618232 41.8873 0.620435 41.8022C0.703764 38.7256 0.75846 35.6475 0.889879 32.5728C0.997069 30.064 1.19199 27.5589 1.35535 25.0523C1.60644 21.2033 3.31341 17.9791 5.67269 15.0228C9.01615 10.8336 12.3442 6.63451 16.2698 2.95028C17.1409 2.13291 17.9173 1.21614 18.7639 0.371362C19.2143 -0.078433 19.5905 -0.150049 20.176 0.394016C21.1393 1.28995 21.2278 2.34739 21.111 3.48266C20.6621 7.86075 20.1606 12.2334 19.7183 16.6122C19.4499 19.269 19.2877 21.9367 19.0054 24.5919C18.9276 25.322 18.5509 26.0162 18.3832 26.743C18.2088 27.4964 18.1637 28.2787 17.9893 29.0322C17.1788 32.5264 15.1164 35.2946 12.7575 37.8885C10.8582 39.9767 9.0033 42.1058 7.0658 44.1578C6.06034 45.2229 4.99688 46.2727 3.80164 47.1043C3.26128 47.4803 2.33511 47.3057 1.58405 47.3828C1.35021 47.4072 1.11747 47.4387 0.808018 47.4759Z" fill="black"/>
</svg>
