<svg width="110" height="73" viewBox="0 0 110 73" fill="none" xmlns="http://www.w3.org/2000/svg">
<path d="M92.4183 72.0186C94.9898 72.1124 97.7836 71.6746 100.45 70.6113C105.403 68.6099 108.07 64.8259 109.054 59.7598C109.245 58.6965 109.149 57.602 108.927 56.5387C108.578 54.9751 108.07 53.5053 107.244 52.1293C105.975 50.0028 104.514 48.0013 102.673 46.3439C101.085 44.9054 99.4345 43.5294 97.7202 42.2472C94.9263 40.1832 92.0373 38.2131 89.2117 36.1804C87.9418 35.2735 86.6402 34.3978 85.1798 33.7724C85.021 33.7098 84.8623 33.616 84.7036 33.5222C77.1476 29.019 69.5916 24.5157 62.0356 19.9812C57.0195 16.9791 52.0351 13.9144 47.0824 10.8809C42.225 7.91007 37.2406 5.18936 31.907 3.09411C28.8909 1.90576 25.7796 0.936313 22.5731 0.373409C19.4618 -0.158223 16.414 -0.00186028 13.3663 0.811223C7.81039 2.28103 4.03241 5.68972 2.0323 11.006C0.0639343 16.2598 0.857628 21.2321 3.74667 25.9543C4.8261 27.7055 6.25475 29.2379 7.77865 30.6139C9.74701 32.3964 11.9059 33.96 14.0647 35.4611C20.4143 39.8392 27.0178 43.8108 33.8436 47.4384C41.2726 51.3788 48.6381 55.4129 56.0353 59.3845C60.0673 61.5423 64.0675 63.7626 68.3217 65.5452C71.306 66.7961 74.322 67.9532 77.3381 69.204C82.0367 71.1742 87.0211 71.9248 92.4183 72.0186Z" fill="#EE8DB9"/>
</svg>
