<svg width="85" height="117" viewBox="0 0 85 117" fill="none" xmlns="http://www.w3.org/2000/svg">
<path fill-rule="evenodd" clip-rule="evenodd" d="M3.98588 37.4063C3.93581 37.2189 3.84015 37.118 3.66366 37.1521C3.3599 37.2105 3.18983 37.3974 3.17249 37.7112C3.16298 37.8832 3.26424 37.9165 3.40745 37.8911C3.70169 37.8387 3.83819 37.6091 3.98588 37.4063ZM2.43439 92.6632C2.73452 91.8194 2.92891 90.9486 3.18121 90.093C2.68669 90.877 2.41901 91.7293 2.43439 92.6632ZM4.65625 35.657C5.90821 34.3071 7.21471 33.0107 8.54163 31.7344C6.92913 32.7298 5.68361 34.0859 4.65625 35.657ZM29.3281 22.2964C31.9129 21.1272 34.0627 19.3757 36.1146 17.4883C33.974 19.0966 31.8362 20.7066 29.5511 22.109C29.4694 22.1594 29.4022 22.2335 29.3281 22.2964ZM58.8918 87.2559C58.1406 89.8227 56.6492 91.9994 55.8984 94.491C56.8427 93.825 59.2809 88.0919 58.8918 87.2559ZM28.576 112.773C29.08 112.773 29.5888 112.817 30.0875 112.766C32.131 112.556 34.1477 112.168 36.1641 111.786C39.1558 111.22 41.9154 109.948 44.7466 108.905C46.0528 108.423 47.3022 107.767 48.1872 106.608C51.1118 102.779 53.4664 98.6562 55.1379 94.1059C56.4721 90.4745 58.2079 86.9925 59.6339 83.3921C60.652 80.8222 61.3018 78.1295 61.5929 75.3662C61.8354 73.0643 61.6992 70.7556 61.7157 68.4489C61.7292 66.5519 61.6956 64.6563 61.815 62.7532C61.8989 61.4129 61.5982 60.0166 61.4833 58.6435C61.2805 56.2257 61.3171 53.8379 62.0519 51.4926C62.7299 49.3288 63.649 47.2685 64.7902 45.322C67.1003 41.381 69.9961 37.8701 73.0337 34.4804C74.6652 32.66 76.2654 30.8218 77.6144 28.7814C80.0968 25.0269 81.2878 20.8803 81.1852 16.3904C81.1049 12.8804 79.5673 10.1552 76.5393 8.30359C71.2758 5.08531 65.7186 4.05543 59.753 6.01533C55.1329 7.53329 51.0192 9.94518 47.2561 13.0085C44.9091 14.9192 42.7663 17.0581 40.4257 18.9743C37.2379 21.5848 33.9992 24.1176 30.2447 25.8926C27.3391 27.2665 24.285 28.2329 21.2133 29.1413C18.5911 29.917 16.0905 30.9639 13.7281 32.3381C11.0016 33.924 8.69902 35.953 7.10526 38.7173C6.9159 39.0465 6.90863 39.0423 6.47732 39.0513C6.34642 39.0541 6.33831 39.1629 6.29439 39.2502C5.89553 40.0459 5.63513 40.8761 5.6245 41.7759C5.61723 42.3837 5.8519 43.253 5.6438 43.5456C4.97558 44.4843 5.47877 45.3936 5.60184 46.1846C5.75484 47.1658 6.01189 48.1839 6.31257 49.1671C7.06694 51.6352 7.93375 54.0592 9.16305 56.3264C10.2903 58.4063 11.3822 60.5047 11.7075 62.8604C11.8015 63.5431 12.6244 64.3227 11.7461 65.0518C11.7458 65.0521 11.8077 65.1201 11.834 65.1607C12.3002 65.8792 12.5357 66.6904 12.5713 67.5236C12.6057 68.3196 12.8901 69.0637 12.9242 69.8505C12.9793 71.1203 13.4504 72.3547 13.1782 73.6589C13.0546 74.2525 13.0834 74.8821 13.0823 75.4955C13.0798 76.8607 12.6171 78.1616 12.5455 79.5302C12.5187 80.0429 12.0709 80.6944 11.8242 81.2815C10.9397 83.386 9.37087 84.989 7.99444 86.7449C6.69941 88.3966 5.24438 90.0158 5.10816 92.2803C5.05334 93.1938 4.78147 94.158 5.25277 95.0153C6.52068 97.3192 7.18749 99.9311 8.92698 101.997C10.2808 103.604 11.1898 105.552 12.8392 106.949C14.4523 108.315 15.9923 109.786 17.8557 110.795C18.7704 111.29 19.6979 111.798 20.7717 112.034C23.3517 112.604 25.947 112.81 28.576 112.773ZM49.9256 6.44755C50.068 6.40447 50.2221 6.38293 50.3511 6.31441C53.5719 4.60149 56.9286 3.24492 60.4887 2.41196C60.6174 2.38175 60.7938 2.38623 60.8702 2.18848C60.6294 2.22288 60.4031 2.24973 60.1788 2.28861C57.2229 2.80271 54.4829 3.93076 51.8215 5.26663C51.1591 5.5992 50.4341 5.85737 49.9391 6.46321C49.1455 6.51859 48.6611 7.18821 47.9744 7.46372C47.8541 7.51182 47.7243 7.73055 47.9078 7.91628C47.9688 7.97781 48.053 8.01753 48.0908 7.94509C48.4905 7.18289 49.4599 7.12331 49.9256 6.44755ZM40.9274 18.0421C41.8488 17.469 42.5819 16.6861 43.3136 15.9023C42.5256 16.6231 41.5735 17.1638 40.9422 18.0578C40.2695 18.2961 39.8396 18.8423 39.3594 19.324C39.9697 19.0057 40.4936 18.5794 40.9274 18.0421ZM61.2596 91.3344C60.7248 92.7973 60.2126 94.2515 59.1302 95.4562C58.476 96.184 57.9543 97.0603 57.5227 97.943C57.3664 98.2636 57.0791 98.3604 56.9155 98.6468C56.5337 99.3156 56.3935 100.071 55.9046 100.721C54.8026 102.185 53.7148 103.656 52.5644 105.087C51.8053 106.03 51.0948 107.022 50.306 107.944C48.8362 109.66 46.9602 110.812 44.8778 111.632C42.4715 112.579 40.0879 113.607 37.6281 114.393C33.0443 115.857 28.3657 116.446 23.5237 115.869C20.6067 115.521 17.7657 114.97 15.2657 113.48C11.2676 111.097 7.97156 107.924 5.64358 103.83C5.55631 103.677 5.44415 103.538 5.33926 103.395C4.3877 102.101 3.52873 100.764 3.09183 99.1877C2.87533 98.4082 2.55563 97.6597 2.20264 96.9241C1.15571 94.7427 1.35682 92.5456 2.20236 90.3574C3.05351 88.155 4.47497 86.2852 6.06397 84.6274C8.18721 82.4121 9.18352 79.843 9.50071 76.8737C9.7958 74.1119 9.31107 71.4371 8.81907 68.7522C8.51727 67.1047 8.24735 65.4505 7.92317 63.8075C7.40012 61.159 6.18173 58.7983 4.93061 56.4317C3.30188 53.3502 2.05692 50.1062 1.30423 46.6854C0.674335 43.8229 0.984807 41.0121 1.95958 38.3133C2.52123 36.7584 3.25126 35.2323 4.43441 33.9728C5.58624 32.7463 6.74841 31.5452 8.12204 30.5657C11.4234 28.2109 15.0629 26.5589 18.9217 25.3565C23.3274 23.9837 27.618 22.3594 31.3823 19.594C34.1715 17.5449 36.8254 15.3335 39.3743 12.9941C42.8452 9.80851 46.4805 6.84308 50.6817 4.64991C54.7542 2.52415 59.0077 0.869419 63.6628 0.911934C70.6694 0.975986 76.6685 3.45194 80.9184 9.21498C84.0611 13.4777 84.5705 18.3622 83.5437 23.4618C83.3582 24.3825 83.1706 25.3031 82.9555 26.2171C82.4025 28.5653 81.4476 30.7243 80.0446 32.7046C79.227 33.8587 78.3454 34.9638 77.5272 36.1056C76.5667 37.4456 75.4971 38.6735 74.3914 39.8707C73.111 41.2572 71.9765 42.7449 70.8982 44.2852C70.5226 44.8217 69.9271 45.1473 69.5637 45.7246C68.1901 47.9077 66.7619 50.0584 65.7813 52.4596C65.2518 53.7558 64.712 55.0198 64.6076 56.4804C64.5442 57.376 64.5987 58.2685 64.5207 59.1586C64.4037 60.4916 64.6337 61.8054 64.8457 63.1083C64.9271 63.6084 64.3207 64.0131 64.4513 64.0481C65.1581 64.2358 64.6611 64.633 64.6756 64.9216C64.684 65.0922 64.5758 65.2796 64.6144 65.4363C65.2705 68.0988 64.9869 70.8181 65.0429 73.5072C65.0949 76.0035 65.3131 78.5472 64.6381 80.994C64.3917 81.8863 64.2121 82.8026 63.9523 83.6946C63.6404 84.7645 63.0651 85.768 62.9691 86.8843C62.834 88.4566 62.0394 89.7743 61.4671 91.1798C61.4358 91.257 61.3197 91.3 61.242 91.3613C61.3152 90.5241 62.0008 89.9001 62.0249 89.0392C61.4375 90.2875 60.7041 91.4701 60.3998 92.8463C60.6865 92.3422 60.9729 91.8385 61.2596 91.3344Z" fill="black"></path>
</svg>
